{"accessors":[{"bufferView":0,"componentType":5126,"count":7128,"max":[19.814502716064453,0.20000000298023224,0.9488169550895691],"min":[-0.05000000074505806,-0.20000000298023224,-0.05000000074505806],"normalized":false,"type":"VEC3"},{"bufferView":1,"componentType":5126,"count":7128,"max":[0.0,0.0,7.630093023180962e-05,-1.0],"min":[-1.0,-1.0,-1.0,-1.0],"normalized":false,"type":"VEC4"},{"bufferView":2,"componentType":5126,"count":7128,"max":[1.0,1.0,1.0],"min":[-1.0,-1.0,-1.0],"normalized":false,"type":"VEC3"},{"bufferView":3,"componentType":5126,"count":7128,"max":[1.0,1.0],"min":[0.0,0.0],"normalized":false,"type":"VEC2"},{"bufferView":4,"componentType":5123,"count":7128,"max":[7127],"min":[0],"normalized":false,"type":"SCALAR"},{"bufferView":5,"componentType":5126,"count":4374,"max":[45.0,0.20000006258487701,2.7250561714172363],"min":[-45.0,-0.20511868596076965,-112.24827575683594],"normalized":false,"type":"VEC3"},{"bufferView":6,"componentType":5126,"count":4374,"max":[1.0,4.579872256726958e-05,1.0,1.0],"min":[-1.0,-1.0,-1.0,-1.0],"normalized":false,"type":"VEC4"},{"bufferView":7,"componentType":5126,"count":4374,"max":[1.0,1.0,1.0],"min":[-1.0,-1.0,-1.0],"normalized":false,"type":"VEC3"},{"bufferView":8,"componentType":5126,"count":4374,"max":[1.0,1.0],"min":[0.0,0.0],"normalized":false,"type":"VEC2"},{"bufferView":9,"componentType":5123,"count":4374,"max":[4373],"min":[0],"normalized":false,"type":"SCALAR"},{"bufferView":10,"componentType":5126,"count":432,"max":[0.17000000178813934,0.185791015625,1.0262398719787598],"min":[-0.17000000178813934,-0.185791015625,-0.17000000178813934],"normalized":false,"type":"VEC3"},{"bufferView":11,"componentType":5126,"count":432,"max":[1.0,6.474052497651428e-05,0.9960355758666992,1.0],"min":[-0.9960388541221619,-2.157951530534774e-05,-0.9960373044013977,-1.0],"normalized":false,"type":"VEC4"},{"bufferView":12,"componentType":5126,"count":432,"max":[0.9960356950759888,1.0,0.9960355758666992],"min":[-0.9960387349128723,-1.0,-0.9960340857505798],"normalized":false,"type":"VEC3"},{"bufferView":13,"componentType":5126,"count":432,"max":[1.0,1.0],"min":[0.0,0.0],"normalized":false,"type":"VEC2"},{"bufferView":14,"componentType":5123,"count":432,"max":[431],"min":[0],"normalized":false,"type":"SCALAR"},{"bufferView":15,"componentType":5126,"count":320,"max":[1.2818000316619873,0.09364482760429382,1.2818000316619873],"min":[-1.2818000316619873,0.0,-1.2818000316619873],"normalized":false,"type":"VEC3"},{"bufferView":16,"componentType":5126,"count":320,"max":[1.0,0.0,-1.5259021893143654e-05,1.0],"min":[1.0,0.0,-4.5778462663292885e-05,-1.0],"normalized":false,"type":"VEC4"},{"bufferView":17,"componentType":5126,"count":320,"max":[0.985378623008728,1.0,0.9853781461715698],"min":[-0.9853850603103638,-1.0,-0.985375165939331],"normalized":false,"type":"VEC3"},{"bufferView":18,"componentType":5126,"count":320,"max":[0.0,1.0],"min":[0.0,1.0],"normalized":false,"type":"VEC2"},{"bufferView":19,"componentType":5123,"count":576,"max":[319],"min":[0],"normalized":false,"type":"SCALAR"},{"bufferView":20,"componentType":5126,"count":4026,"max":[45.0,0.20000006258487701,2.7250561714172363],"min":[-45.0,-0.20511868596076965,-112.24827575683594],"normalized":false,"type":"VEC3"},{"bufferView":21,"componentType":5126,"count":4026,"max":[1.0,6.104167550802231e-05,1.0,1.0],"min":[-1.0,-1.0,-1.0,-1.0],"normalized":false,"type":"VEC4"},{"bufferView":22,"componentType":5126,"count":4026,"max":[1.0,1.0,1.0],"min":[-1.0,-1.0,-1.0],"normalized":false,"type":"VEC3"},{"bufferView":23,"componentType":5126,"count":4026,"max":[1.0,1.0],"min":[0.0,0.0],"normalized":false,"type":"VEC2"},{"bufferView":24,"componentType":5123,"count":4026,"max":[4025],"min":[0],"normalized":false,"type":"SCALAR"}],"asset":{"generator":"Godot Engine v4.7.stable.official@5b4e0cb0fd279832bbdd69fed5354d4e5ad26f88","version":"2.0"},"bufferViews":[{"buffer":0,"byteLength":85536,"byteStride":12,"target":34962},{"buffer":0,"byteLength":114048,"byteOffset":85536,"byteStride":16,"target":34962},{"buffer":0,"byteLength":85536,"byteOffset":199584,"byteStride":12,"target":34962},{"buffer":0,"byteLength":57024,"byteOffset":285120,"byteStride":8,"target":34962},{"buffer":0,"byteLength":14256,"byteOffset":342144,"target":34963},{"buffer":0,"byteLength":52488,"byteOffset":356400,"byteStride":12,"target":34962},{"buffer":0,"byteLength":69984,"byteOffset":408888,"byteStride":16,"target":34962},{"buffer":0,"byteLength":52488,"byteOffset":478872,"byteStride":12,"target":34962},{"buffer":0,"byteLength":34992,"byteOffset":531360,"byteStride":8,"target":34962},{"buffer":0,"byteLength":8748,"byteOffset":566352,"target":34963},{"buffer":0,"byteLength":5184,"byteOffset":575100,"byteStride":12,"target":34962},{"buffer":0,"byteLength":6912,"byteOffset":580284,"byteStride":16,"target":34962},{"buffer":0,"byteLength":5184,"byteOffset":587196,"byteStride":12,"target":34962},{"buffer":0,"byteLength":3456,"byteOffset":592380,"byteStride":8,"target":34962},{"buffer":0,"byteLength":864,"byteOffset":595836,"target":34963},{"buffer":0,"byteLength":3840,"byteOffset":596700,"byteStride":12,"target":34962},{"buffer":0,"byteLength":5120,"byteOffset":600540,"byteStride":16,"target":34962},{"buffer":0,"byteLength":3840,"byteOffset":605660,"byteStride":12,"target":34962},{"buffer":0,"byteLength":2560,"byteOffset":609500,"byteStride":8,"target":34962},{"buffer":0,"byteLength":1152,"byteOffset":612060,"target":34963},{"buffer":0,"byteLength":48312,"byteOffset":613212,"byteStride":12,"target":34962},{"buffer":0,"byteLength":64416,"byteOffset":661524,"byteStride":16,"target":34962},{"buffer":0,"byteLength":48312,"byteOffset":725940,"byteStride":12,"target":34962},{"buffer":0,"byteLength":32208,"byteOffset":774252,"byteStride":8,"target":34962},{"buffer":0,"byteLength":8052,"byteOffset":806460,"target":34963}],"buffers":[{"byteLength":814512,"uri":"mainmenucsg0.bin"}],"extensionsUsed":["GODOT_single_root"],"materials":[{},{},{"pbrMetallicRoughness":{"baseColorFactor":[1.0,1.0,1.0,1.0],"metallicFactor":0.0,"roughnessFactor":1.0}}],"meshes":[{"primitives":[{"attributes":{"NORMAL":2,"POSITION":0,"TANGENT":1,"TEXCOORD_0":3},"indices":4,"mode":4}]},{"name":"CSGBox3D32","primitives":[{"attributes":{"NORMAL":7,"POSITION":5,"TANGENT":6,"TEXCOORD_0":8},"indices":9,"material":0,"mode":4}]},{"name":"CSGCylinder3D2","primitives":[{"attributes":{"NORMAL":12,"POSITION":10,"TANGENT":11,"TEXCOORD_0":13},"indices":14,"material":1,"mode":4}]},{"name":"cog_Circle_004","primitives":[{"attributes":{"NORMAL":17,"POSITION":15,"TANGENT":16,"TEXCOORD_0":18},"indices":19,"material":2,"mode":4}]},{"name":"cog_Circle_0042","primitives":[{"attributes":{"NORMAL":17,"POSITION":15,"TANGENT":16,"TEXCOORD_0":18},"indices":19,"material":2,"mode":4}]},{"name":"cog_Circle_0043","primitives":[{"attributes":{"NORMAL":17,"POSITION":15,"TANGENT":16,"TEXCOORD_0":18},"indices":19,"material":2,"mode":4}]},{"name":"cog_Circle_0044","primitives":[{"attributes":{"NORMAL":17,"POSITION":15,"TANGENT":16,"TEXCOORD_0":18},"indices":19,"material":2,"mode":4}]},{"name":"cog_Circle_0045","primitives":[{"attributes":{"NORMAL":17,"POSITION":15,"TANGENT":16,"TEXCOORD_0":18},"indices":19,"material":2,"mode":4}]},{"name":"cog_Circle_0046","primitives":[{"attributes":{"NORMAL":17,"POSITION":15,"TANGENT":16,"TEXCOORD_0":18},"indices":19,"material":2,"mode":4}]},{"name":"cog_Circle_0047","primitives":[{"attributes":{"NORMAL":17,"POSITION":15,"TANGENT":16,"TEXCOORD_0":18},"indices":19,"material":2,"mode":4}]},{"name":"cog_Circle_0048","primitives":[{"attributes":{"NORMAL":17,"POSITION":15,"TANGENT":16,"TEXCOORD_0":18},"indices":19,"material":2,"mode":4}]},{"primitives":[{"attributes":{"NORMAL":22,"POSITION":20,"TANGENT":21,"TEXCOORD_0":23},"indices":24,"mode":4}]}],"nodes":[{"children":[1,2,77,80,88],"name":"Node3D"},{"mesh":0,"name":"CSGBakedMeshInstance3D","rotation":[0.0,0.7071067690849304,0.0,0.7071067690849304],"translation":[-0.4518986642360687,0.0,-6.404857158660889]},{"children":[3,6,7,8,9,10,30,31,32,34,39,40,42,56,61,62,63,64,65,66,67,68,69,70,71,72,73,74,75,76],"mesh":1,"name":"CSGBox3D32","translation":[-0.030423402786254883,-0.020079851150512695,-0.008152365684509277]},{"children":[4,5],"name":"CSGBox3D28","translation":[0.0,0.0,1.5643967390060425]},{"name":"CSGBox3D16","translation":[0.0,0.10000000149011612,0.0033921003341674805]},{"name":"CSGBox3D17","translation":[0.0,0.10000000149011612,0.059710025787353516]},{"name":"CSGBox3D"},{"name":"CSGBox3D2","translation":[0.0,0.0,-1.5628604888916016]},{"name":"CSGBox3D33","translation":[0.0,0.10000000149011612,-0.034606970846652985]},{"name":"CSGBox3D6","translation":[0.0,0.10000000149011612,-0.034606970846652985]},{"children":[11,12,13,14,15,16,17,18,19,20,21,22,23,24,25],"name":"CSGBox3D14","translation":[0.0,0.0,-4.372000217437744]},{"name":"CSGBox3D15","translation":[0.0,0.10000000149011612,0.0]},{"name":"CSGBox3D26","translation":[2.623626232147217,0.0,-0.8509998321533203]},{"name":"CSGBox3D282","rotation":[0.0,0.7071067690849304,0.0,0.7071067690849304],"translation":[2.066303253173828,0.0,0.0]},{"name":"CSGBox3D30","rotation":[0.0,0.7071067690849304,0.0,0.7071067690849304],"translation":[-1.157600998878479,0.0,0.018892765045166016]},{"name":"CSGBox3D29","rotation":[0.0,0.7071067690849304,0.0,0.7071067690849304],"translation":[2.0679163932800293,0.10000000149011612,0.0]},{"name":"CSGBox3D322","rotation":[0.0,0.7071067690849304,0.0,0.7071067690849304],"translation":[1.2869240045547485,0.0,0.0]},{"name":"CSGBox3D332","rotation":[0.0,0.7071067690849304,0.0,0.7071067690849304],"translation":[1.2885371446609497,0.10000000149011612,0.0]},{"name":"CSGBox3D31","rotation":[0.0,0.7071067690849304,0.0,0.7071067690849304],"translation":[2.627246856689453,-0.003786526620388031,0.0]},{"name":"CSGBox3D27","translation":[2.624000072479248,0.0,0.8510000109672546]},{"name":"CSGBox3D34","translation":[0.7289999723434448,0.0,-0.7260000109672546]},{"name":"CSGBox3D35","translation":[0.7289999723434448,0.0,0.7260000109672546]},{"name":"CSGBox3D36","translation":[-2.125763416290283,0.0,0.22844648361206055]},{"name":"CSGBox3D37","rotation":[0.0,0.7071067690849304,0.0,0.7071067690849304],"translation":[-1.7747175693511963,0.0,-0.7714829444885254]},{"name":"CSGBox3D38","rotation":[0.0,0.7071067690849304,0.0,0.7071067690849304],"translation":[-2.4849026203155518,0.0,-0.40538978576660156]},{"children":[26],"name":"columnsl3","rotation":[0.0,0.7071067690849304,0.0,0.7071067690849304],"translation":[-0.8565647602081299,-0.02836894989013672,0.8316159248352051]},{"children":[27],"name":"CSGBox3D8","translation":[0.40000003576278687,0.0,2.9802322387695313e-08]},{"children":[28],"name":"CSGBox3D82","translation":[0.40000009536743164,0.0,0.0]},{"children":[29],"name":"CSGBox3D83","translation":[0.40000009536743164,0.0,2.9802322387695313e-08]},{"name":"CSGBox3D84","translation":[0.3999999761581421,0.0,0.0]},{"name":"CSGBox3D5","rotation":[0.0,0.7071067690849304,0.0,0.7071067690849304],"translation":[-2.3369135959683263e-08,0.10000000149011612,-0.9474653005599976]},{"name":"CSGBox3D4","translation":[-0.00025641918182373047,0.09891656786203384,-1.5608229637145996]},{"children":[33],"name":"CSGBox3D152","translation":[2.486457109451294,0.0,-1.9400427341461182]},{"name":"CSGBox3D162","translation":[0.0,0.10000000149011612,0.0]},{"children":[35,36,37,38],"name":"CSGBox3D20","translation":[-2.803539514541626,0.0,-1.925619125366211]},{"name":"CSGBox3D21","translation":[0.0,0.10000000149011612,0.0]},{"name":"CSGBox3D22","translation":[0.23508262634277344,-0.07045073062181473,-0.10016345977783203]},{"name":"CSGBox3D24","translation":[0.23508262634277344,-0.03700651600956917,-0.10332655906677246]},{"name":"CSGBox3D23","translation":[-0.12226366996765137,-0.030335433781147003,0.4533963203430176]},{"name":"CSGBox3D222","translation":[-1.7628674507141113,0.0,-0.6443668603897095]},{"children":[41],"name":"CSGBox3D18","translation":[0.0,0.0,-16.676437377929688]},{"name":"CSGBox3D163","translation":[0.0,0.10000000149011612,0.0]},{"children":[43],"name":"columnsl","rotation":[0.0,0.7071067690849304,0.0,0.7071067690849304],"translation":[-0.4518986642360687,0.0,-0.7587754130363464]},{"children":[44],"name":"CSGBox3D85","translation":[0.40000003576278687,0.0,2.9802322387695313e-08]},{"children":[45],"name":"CSGBox3D86","translation":[0.40000009536743164,0.0,0.0]},{"children":[46,47,48,49,50,51,52,53,54,55],"name":"CSGBox3D87","translation":[0.40000009536743164,0.0,2.9802322387695313e-08]},{"name":"CSGBox3D88","translation":[0.3999999761581421,0.0,0.0]},{"name":"CSGBox3D9","translation":[0.7522779703140259,5.960464477539063e-08,-2.347623348236084]},{"name":"CSGBox3D10","translation":[0.7522777318954468,5.960464477539063e-08,-1.9692189693450928]},{"name":"CSGBox3D11","translation":[-0.14414215087890625,5.960464477539063e-08,-2.6512837409973145]},{"name":"CSGBox3D153","translation":[0.19709789752960205,-0.002831980586051941,-2.670180320739746]},{"name":"CSGBox3D164","translation":[0.4612973928451538,5.960464477539063e-08,-2.076282024383545]},{"name":"CSGBox3D13","translation":[-0.281164288520813,5.960464477539063e-08,-2.069370746612549]},{"name":"CSGBox3D12","translation":[-0.25979912281036377,-0.08431390672922134,-2.6512837409973145]},{"name":"CSGBox3D172","translation":[0.4963036775588989,-0.1191466748714447,-2.661249876022339]},{"name":"CSGBox3D142","translation":[0.001300811767578125,-0.0758117139339447,-2.6512837409973145]},{"children":[57],"name":"columnsl2","rotation":[0.0,0.7071067690849304,0.0,0.7071067690849304],"translation":[0.45197251439094543,0.0,-0.7587754130363464]},{"children":[58],"name":"CSGBox3D89","translation":[0.40000003576278687,0.0,2.9802322387695313e-08]},{"children":[59],"name":"CSGBox3D810","translation":[0.40000009536743164,0.0,0.0]},{"children":[60],"name":"CSGBox3D811","translation":[0.40000009536743164,0.0,2.9802322387695313e-08]},{"name":"CSGBox3D812","translation":[0.3999999761581421,0.0,0.0]},{"name":"CSGBox3D7","translation":[1.0861010551452637,0.0,-2.2733757495880127]},{"name":"CSGBox3D173","translation":[2.0799062252044678,0.10000000149011612,-2.0585777759552]},{"name":"CSGBox3D212","translation":[-2.6103057861328125,0.10000000149011612,-2.595365047454834]},{"name":"CSGBox3D19","translation":[0.0,0.10000000149011612,-6.112953186035156]},{"name":"CSGBox3D813","rotation":[0.0,-0.7071067690849304,0.0,0.7071067690849304],"translation":[1.6856310367584229,0.0,-1.6443229913711548]},{"name":"CSGBox3D92","rotation":[0.0,-0.7071067690849304,0.0,0.7071067690849304],"translation":[1.0746433734893799,0.0,-1.0753328800201416]},{"name":"CSGBox3D165","rotation":[0.0,-0.7071067690849304,0.0,0.7071067690849304],"translation":[-2.1695730686187744,0.0,-3.5090174674987793]},{"name":"CSGBox3D102","rotation":[0.0,-0.7071067690849304,0.0,0.7071067690849304],"translation":[-0.8706611394882202,0.0,-1.7895907163619995]},{"name":"CSGBox3D112","rotation":[0.0,-0.7071067690849304,0.0,0.7071067690849304],"translation":[-1.375014305114746,0.0,-1.3256025314331055]},{"name":"CSGBox3D232","translation":[-1.7628674507141113,0.10000000149011612,-0.6443668603897095]},{"name":"CSGBox3D242","translation":[-1.6321345567703247,0.10000000149011612,-0.7009156942367554]},{"name":"CSGBox3D122","rotation":[0.0,-0.7071067690849304,0.0,0.7071067690849304],"translation":[-0.8889999985694885,0.0,0.0]},{"name":"CSGBox3D132","rotation":[0.0,-0.7071067690849304,0.0,0.7071067690849304],"translation":[0.8889999985694885,0.0,0.0]},{"name":"CSGBox3D25","translation":[0.0,0.0,-69.30902099609375]},{"name":"CSGBox3D262","translation":[0.0,0.10000000149011612,-28.197402954101563]},{"name":"CSGBox3D272","translation":[0.0,0.10000000149011612,-69.30899810791016]},{"children":[78],"mesh":2,"name":"CSGCylinder3D2","scale":[0.9350000023841858,0.9350000023841858,0.9350000023841858],"translation":[-2.091660976409912,-0.02834528684616089,-2.3590989112854004]},{"children":[79],"name":"CSGCylinder3D22","translation":[0.0,0.0,0.4281198978424072]},{"name":"CSGCylinder3D23","translation":[0.0,0.0,0.4281198978424072]},{"children":[81,82,83,84,85,86,87],"mesh":3,"name":"corecog","rotation":[0.0,-0.07842037826776505,0.0,0.9969203472137451],"scale":[0.1850000023841858,0.39500001072883606,0.1850000023841858],"translation":[2.486771583557129,-0.09255540370941162,-1.8877884149551392]},{"matrix":[0.9846373796463013,-0.06601789593696594,0.10305564105510712,0.0,0.2795376181602478,0.9864956140518188,0.2101297378540039,0.0,-0.11553625762462616,-0.039065882563591,0.9897948503494263,0.0,0.8897886276245117,0.09642837941646576,-0.14085769653320313,1.0],"mesh":4,"name":"MeshInstance3D2"},{"matrix":[0.942747175693512,0.11704108864068985,-0.22085969150066376,0.0,-0.6028982400894165,0.9504750967025757,-0.27727267146110535,0.0,0.17746926844120026,0.08654768764972687,0.9666211605072021,0.0,-0.6799821853637695,0.1537266969680786,-0.6665468215942383,1.0],"mesh":5,"name":"MeshInstance3D3"},{"matrix":[0.8891112804412842,-0.13711856305599213,-0.3518081307411194,0.0,0.32790929079055786,0.9149297475814819,-0.796944260597229,0.0,0.4311554431915283,0.1301242560148239,0.8584364652633667,0.0,-1.4241294860839844,0.19531036913394928,1.990255355834961,1.0],"mesh":6,"name":"MeshInstance3D4"},{"matrix":[-0.9009230732917786,-0.11847566068172455,-0.36988887190818787,0.0,-0.5481486916542053,1.002672553062439,0.07064054906368256,0.0,0.34762856364250183,-0.060107287019491196,-0.9191544055938721,0.0,-0.7274818420410156,0.19531035423278809,-2.1158599853515625,1.0],"mesh":7,"name":"MeshInstance3D5"},{"mesh":8,"name":"MeshInstance3D7","scale":[0.9810789823532104,1.1449055671691895,0.9845315217971802],"translation":[1.564070701599121,0.24281641840934753,-0.991755485534668]},{"mesh":9,"name":"MeshInstance3D8","rotation":[0.10296688973903656,-0.06821876019239426,0.01007448136806488,0.9922915697097778],"scale":[0.9810783267021179,1.1449049711227417,0.9845309257507324],"translation":[1.8810663223266602,0.1508147120475769,1.0106782913208008]},{"matrix":[0.7892101407051086,-0.08073490113019943,0.5894342660903931,0.0,-0.22217075526714325,0.908385694026947,0.8646846413612366,0.0,-0.6052437424659729,-0.17841807007789612,0.6989700198173523,0.0,1.3861513137817383,0.19531036913394928,-2.6152477264404297,1.0],"mesh":10,"name":"MeshInstance3D6"},{"mesh":11,"name":"maino","translation":[-0.030423402786254883,-0.020079851150512695,-0.008152365684509277]}],"scene":0,"scenes":[{"nodes":[0]}]}